<svg width="22" height="20" viewBox="0 0 22 20" fill="none" xmlns="http://www.w3.org/2000/svg">
<path d="M21 1.5L17.5896 3.73307C16.7772 4.26496 15.8 4.4985 14.8297 4.39261L13.5265 4.25039C12.3423 4.12117 11.1587 4.49814 10.2771 5.28532L7.75986 7.5329C6.77913 8.40858 6.74271 9.91167 7.67993 10.8322C8.48235 11.6203 9.74728 11.7231 10.6707 11.0753L12.3355 9.90735C12.5688 9.74366 12.8607 9.68213 13.1419 9.73736L13.4754 9.80286C14.6329 10.0303 15.8344 9.7626 16.7788 9.06693L17.3693 8.63194" stroke="#FD6512" stroke-width="1.5" stroke-linecap="round"/>
<path d="M13.1419 9.73736C13.7613 10.9916 14.6 13.9 17 15.5C15.8333 16.8333 12.6 18.5 9 18.5C4.5 18.5 1 13.5 1 13.5M11 4.76781C10.2126 4.28417 8.0206 3.58265 5.03154 3.50673C4.68359 3.49789 4.34105 3.40917 4.03885 3.23649L1 1.5" stroke="#FD6512" stroke-width="1.5" stroke-linecap="round" stroke-linejoin="round"/>
<path d="M17 15.5C17 15.5 19.5 15 21 13.5" stroke="#FD6512" stroke-width="1.5" stroke-linecap="round" stroke-linejoin="round"/>
</svg>
