<svg width="20" height="22" viewBox="0 0 20 22" fill="none" xmlns="http://www.w3.org/2000/svg">
<path d="M12.9263 1.91103L6.27352 5.10452C5.76151 5.35029 5.21443 5.41187 4.65675 5.28693C4.29177 5.20517 4.10926 5.16429 3.9623 5.14751C2.13743 4.93912 1 6.38342 1 8.04427V8.95573C1 10.6166 2.13743 12.0609 3.9623 11.8525C4.10926 11.8357 4.29178 11.7948 4.65675 11.7131C5.21443 11.5881 5.76151 11.6497 6.27352 11.8955L12.9263 15.089C14.4534 15.8221 15.217 16.1886 16.0684 15.9029C16.9197 15.6172 17.2119 15.0041 17.7964 13.778C19.4012 10.4112 19.4012 6.58885 17.7964 3.22196C17.2119 1.99586 16.9197 1.38281 16.0684 1.0971C15.217 0.811396 14.4534 1.17794 12.9263 1.91103Z" stroke="url(#paint0_linear_2001_891)" stroke-width="1.5" stroke-linecap="round" stroke-linejoin="round"/>
<path d="M9.45805 19.7709L7.96674 21C4.60515 18.3339 5.01583 17.0625 5.01583 12H6.14966C6.60978 14.8609 7.69512 16.216 9.19275 17.197C10.1152 17.8012 10.3054 19.0725 9.45805 19.7709Z" stroke="url(#paint1_linear_2001_891)" stroke-width="1.5" stroke-linecap="round" stroke-linejoin="round"/>
<path d="M5.5 11.5V5.5" stroke="url(#paint2_linear_2001_891)" stroke-width="1.5" stroke-linecap="round" stroke-linejoin="round"/>
<defs>
<linearGradient id="paint0_linear_2001_891" x1="10" y1="1" x2="10" y2="16" gradientUnits="userSpaceOnUse">
<stop stop-color="#FD6512"/>
<stop offset="1" stop-color="#FF4E27"/>
</linearGradient>
<linearGradient id="paint1_linear_2001_891" x1="7.5" y1="12" x2="7.5" y2="21" gradientUnits="userSpaceOnUse">
<stop stop-color="#FD6512"/>
<stop offset="1" stop-color="#FF4E27"/>
</linearGradient>
<linearGradient id="paint2_linear_2001_891" x1="6" y1="5.5" x2="6" y2="11.5" gradientUnits="userSpaceOnUse">
<stop stop-color="#FD6512"/>
<stop offset="1" stop-color="#FF4E27"/>
</linearGradient>
</defs>
</svg>
