<svg width="104" height="104" viewBox="0 0 104 104" fill="none" xmlns="http://www.w3.org/2000/svg">
<circle cx="52" cy="52" r="52" fill="white" fill-opacity="0.02"/>
<circle cx="52" cy="52" r="48" stroke="#06060D" stroke-opacity="0.04" stroke-width="8"/>
<mask id="path-3-inside-1_2034_1244" fill="white">
<path d="M52 3.97859C52 1.78127 53.7839 -0.0158353 55.9748 0.152109C64.8592 0.833149 73.4439 3.7885 80.8897 8.76358C89.441 14.4774 96.106 22.5987 100.042 32.1005C103.977 41.6022 105.007 52.0577 103.001 62.1447C100.994 72.2317 96.0419 81.4972 88.7696 88.7696C81.4972 96.0419 72.2317 100.994 62.1447 103.001C52.0577 105.007 41.6022 103.977 32.1005 100.042C22.5987 96.106 14.4774 89.441 8.76358 80.8897C3.7885 73.4439 0.833147 64.8592 0.152108 55.9748C-0.0158355 53.7839 1.78128 52 3.97859 52V52C6.1759 52 7.93852 53.7849 8.13674 55.9733C8.79874 63.282 11.2793 70.3322 15.3797 76.4689C20.2192 83.7117 27.0978 89.3568 35.1455 92.6903C43.1933 96.0238 52.0489 96.896 60.5923 95.1965C69.1358 93.4971 76.9835 89.3025 83.143 83.143C89.3025 76.9835 93.4971 69.1358 95.1965 60.5923C96.896 52.0489 96.0238 43.1933 92.6903 35.1455C89.3568 27.0978 83.7117 20.2192 76.4689 15.3797C70.3322 11.2793 63.282 8.79874 55.9733 8.13674C53.7849 7.93852 52 6.17591 52 3.97859V3.97859Z"/>
</mask>
<path d="M52 3.97859C52 1.78127 53.7839 -0.0158353 55.9748 0.152109C64.8592 0.833149 73.4439 3.7885 80.8897 8.76358C89.441 14.4774 96.106 22.5987 100.042 32.1005C103.977 41.6022 105.007 52.0577 103.001 62.1447C100.994 72.2317 96.0419 81.4972 88.7696 88.7696C81.4972 96.0419 72.2317 100.994 62.1447 103.001C52.0577 105.007 41.6022 103.977 32.1005 100.042C22.5987 96.106 14.4774 89.441 8.76358 80.8897C3.7885 73.4439 0.833147 64.8592 0.152108 55.9748C-0.0158355 53.7839 1.78128 52 3.97859 52V52C6.1759 52 7.93852 53.7849 8.13674 55.9733C8.79874 63.282 11.2793 70.3322 15.3797 76.4689C20.2192 83.7117 27.0978 89.3568 35.1455 92.6903C43.1933 96.0238 52.0489 96.896 60.5923 95.1965C69.1358 93.4971 76.9835 89.3025 83.143 83.143C89.3025 76.9835 93.4971 69.1358 95.1965 60.5923C96.896 52.0489 96.0238 43.1933 92.6903 35.1455C89.3568 27.0978 83.7117 20.2192 76.4689 15.3797C70.3322 11.2793 63.282 8.79874 55.9733 8.13674C53.7849 7.93852 52 6.17591 52 3.97859V3.97859Z" stroke="url(#paint0_linear_2034_1244)" stroke-width="16" mask="url(#path-3-inside-1_2034_1244)"/>
<defs>
<linearGradient id="paint0_linear_2034_1244" x1="52" y1="0" x2="52" y2="104" gradientUnits="userSpaceOnUse">
<stop stop-color="#FD6512"/>
<stop offset="1" stop-color="#FF4E27"/>
</linearGradient>
</defs>
</svg>
