<svg width="32" height="23" viewBox="0 0 32 23" fill="none" xmlns="http://www.w3.org/2000/svg">
<path d="M12.0689 18.969L11.0132 4.52499C10.9872 4.16899 11.1464 3.82471 11.4346 3.61403L15.17 0.882706C15.5355 0.615514 16.0321 0.616795 16.3962 0.885868L20.0922 3.61768C20.3748 3.82655 20.5321 4.16453 20.5099 4.51524L19.5985 18.9541C19.5759 19.3121 19.3696 19.6328 19.0532 19.8019L16.2788 21.2841C15.9703 21.4489 15.5994 21.4467 15.2928 21.2783L12.6029 19.8008C12.2955 19.6319 12.0945 19.3188 12.0689 18.969Z" fill="url(#paint0_linear_89_1537)"/>
<path d="M7.76493 8.26173L8.98267 18.8854C9.02785 19.2796 8.84374 19.6649 8.50868 19.8774L3.91572 22.79C3.3157 23.1705 2.51948 22.8472 2.35463 22.1561L0.154996 12.9345C0.0606385 12.539 0.206676 12.1248 0.528278 11.8759L6.10313 7.56109C6.74086 7.0675 7.6731 7.46054 7.76493 8.26173Z" fill="url(#paint1_linear_89_1537)"/>
<path d="M23.9071 8.26173L22.6894 18.8854C22.6442 19.2796 22.8283 19.6649 23.1634 19.8774L27.7563 22.79C28.3564 23.1705 29.1526 22.8472 29.3174 22.1561L31.5171 12.9345C31.6114 12.539 31.4654 12.1248 31.1438 11.8759L25.5689 7.56109C24.9312 7.0675 23.999 7.46054 23.9071 8.26173Z" fill="url(#paint2_linear_89_1537)"/>
<path d="M11.4261 4.49481C11.4105 4.28121 11.506 4.07464 11.6789 3.94823L15.4144 1.21691C15.6337 1.0566 15.9317 1.05736 16.1501 1.21881L19.8461 3.95062C20.0156 4.07595 20.11 4.27873 20.0967 4.48916L19.1853 18.9281C19.1718 19.1428 19.048 19.3353 18.8582 19.4367L16.0838 20.9189C15.8986 21.0178 15.6761 21.0165 15.4921 20.9155L12.8022 19.4379C12.6177 19.3366 12.4972 19.1487 12.4818 18.9389L11.4261 4.49481ZM7.35361 8.30888L8.57135 18.9326C8.59846 19.1691 8.48799 19.4003 8.28695 19.5278L3.694 22.4404C3.33399 22.6687 2.85626 22.4747 2.75735 22.06L0.557712 12.8385C0.501097 12.6011 0.588719 12.3526 0.781681 12.2033L6.35653 7.88849C6.73917 7.59234 7.29851 7.82817 7.35361 8.30888ZM23.1007 18.9326L24.3184 8.30888C24.3735 7.82817 24.9329 7.59234 25.3155 7.88849L30.8904 12.2033C31.0833 12.3526 31.171 12.6011 31.1143 12.8385L28.9147 22.06C28.8158 22.4747 28.3381 22.6687 27.9781 22.4404L23.3851 19.5278C23.1841 19.4003 23.0736 19.1691 23.1007 18.9326Z" stroke="url(#paint3_linear_89_1537)" stroke-opacity="0.2" stroke-width="0.828028"/>
<defs>
<linearGradient id="paint0_linear_89_1537" x1="15.836" y1="0.433594" x2="15.836" y2="23.5666" gradientUnits="userSpaceOnUse">
<stop stop-color="#FD6512"/>
<stop offset="1" stop-color="#FF4E27"/>
</linearGradient>
<linearGradient id="paint1_linear_89_1537" x1="15.836" y1="0.433594" x2="15.836" y2="23.5666" gradientUnits="userSpaceOnUse">
<stop stop-color="#FD6512"/>
<stop offset="1" stop-color="#FF4E27"/>
</linearGradient>
<linearGradient id="paint2_linear_89_1537" x1="15.836" y1="0.433594" x2="15.836" y2="23.5666" gradientUnits="userSpaceOnUse">
<stop stop-color="#FD6512"/>
<stop offset="1" stop-color="#FF4E27"/>
</linearGradient>
<linearGradient id="paint3_linear_89_1537" x1="15.836" y1="0.433594" x2="15.836" y2="23.5666" gradientUnits="userSpaceOnUse">
<stop stop-color="white"/>
<stop offset="1" stop-color="white" stop-opacity="0"/>
</linearGradient>
</defs>
</svg>
