<svg width="14" height="20" viewBox="0 0 14 20" fill="none" xmlns="http://www.w3.org/2000/svg">
<path fill-rule="evenodd" clip-rule="evenodd" d="M2.1515 8.61144C1.33671 8.61144 1.16666 8.77131 1.16666 9.53736V10.9263C1.16666 11.6923 1.33671 11.8522 2.1515 11.8522H4.1212V17.4077C4.1212 18.1738 4.29125 18.3337 5.10605 18.3337H7.07575C7.89055 18.3337 8.0606 18.1738 8.0606 17.4077V11.8522H10.2723C10.8902 11.8522 11.0495 11.7393 11.2192 11.1806L11.6413 9.79174C11.9321 8.83479 11.7529 8.61144 10.6943 8.61144H8.0606V6.29662C8.0606 5.78525 8.50153 5.3707 9.04544 5.3707H11.8485C12.6633 5.3707 12.8333 5.21082 12.8333 4.44477V2.59292C12.8333 1.82687 12.6633 1.66699 11.8485 1.66699H9.04544C6.32586 1.66699 4.1212 3.73975 4.1212 6.29662V8.61144H2.1515Z" stroke="#F1F1F6" stroke-width="1.5" stroke-linejoin="round"/>
</svg>
