<svg width="24" height="24" viewBox="0 0 24 24" fill="none" xmlns="http://www.w3.org/2000/svg">
<path d="M21.5902 10.18H12.2002V13.89H17.7102C17.6002 14.81 17.0002 16.2 15.6702 17.13C14.8302 17.72 13.6902 18.13 12.2002 18.13C9.5602 18.13 7.3102 16.39 6.5102 13.97C6.3002 13.35 6.1802 12.68 6.1802 11.99C6.1802 11.3 6.3002 10.63 6.5002 10.01C6.5602 9.83001 6.6302 9.64 6.7102 9.47C7.6602 7.34 9.7602 5.85999 12.2002 5.85999C14.0802 5.85999 15.3402 6.67001 16.0702 7.35001L18.8902 4.59C17.1602 2.98 14.9002 1.98999 12.2002 1.98999C8.2902 1.98999 4.91019 4.23 3.2702 7.5C2.5902 8.86 2.2002 10.38 2.2002 11.99C2.2002 13.6 2.5902 15.12 3.2702 16.48L3.2802 16.47V16.48C4.9202 19.75 8.2902 21.99 12.2002 21.99C14.9002 21.99 17.1702 21.1 18.8202 19.57C20.7102 17.83 21.8002 15.26 21.8002 12.21C21.8002 11.4 21.7302 10.8 21.5902 10.18Z" stroke="url(#paint0_linear_2024_899)" stroke-width="1.5" stroke-miterlimit="10" stroke-linecap="round" stroke-linejoin="round"/>
<defs>
<linearGradient id="paint0_linear_2024_899" x1="12.0002" y1="1.98999" x2="12.0002" y2="21.99" gradientUnits="userSpaceOnUse">
<stop stop-color="#FD6512"/>
<stop offset="1" stop-color="#FF4E27"/>
</linearGradient>
</defs>
</svg>
