<svg width="18" height="18" viewBox="0 0 18 18" fill="none" xmlns="http://www.w3.org/2000/svg">
<path d="M1.08334 8.99967C1.08334 5.26772 1.08334 3.40175 2.24271 2.24238C3.40208 1.08301 5.26806 1.08301 9.00001 1.08301C12.732 1.08301 14.5979 1.08301 15.7573 2.24238C16.9167 3.40175 16.9167 5.26772 16.9167 8.99967C16.9167 12.7316 16.9167 14.5976 15.7573 15.757C14.5979 16.9163 12.732 16.9163 9.00001 16.9163C5.26806 16.9163 3.40208 16.9163 2.24271 15.757C1.08334 14.5976 1.08334 12.7316 1.08334 8.99967Z" stroke="#F1F1F6" stroke-width="1.5" stroke-linejoin="round"/>
<path d="M12.75 9C12.75 11.0711 11.0711 12.75 9 12.75C6.92893 12.75 5.25 11.0711 5.25 9C5.25 6.92893 6.92893 5.25 9 5.25C11.0711 5.25 12.75 6.92893 12.75 9Z" stroke="#F1F1F6" stroke-width="1.5"/>
<path d="M13.5898 4.4165L13.5824 4.4165" stroke="#F1F1F6" stroke-width="2" stroke-linecap="round" stroke-linejoin="round"/>
</svg>
