<svg width="84" height="24" viewBox="0 0 84 24" fill="none" xmlns="http://www.w3.org/2000/svg">
<path d="M12.0689 18.969L11.0132 4.52499C10.9872 4.16899 11.1464 3.82471 11.4346 3.61403L15.17 0.882706C15.5355 0.615514 16.0321 0.616795 16.3962 0.885868L20.0922 3.61768C20.3748 3.82655 20.5321 4.16453 20.5099 4.51524L19.5985 18.9541C19.5759 19.3121 19.3696 19.6328 19.0532 19.8019L16.2788 21.2841C15.9703 21.4489 15.5994 21.4467 15.2928 21.2783L12.6029 19.8008C12.2955 19.6319 12.0945 19.3188 12.0689 18.969Z" fill="url(#paint0_linear_2016_1252)"/>
<path d="M7.76493 8.26173L8.98267 18.8854C9.02785 19.2796 8.84374 19.6649 8.50868 19.8774L3.91572 22.79C3.3157 23.1705 2.51948 22.8472 2.35463 22.1561L0.154996 12.9345C0.0606385 12.539 0.206676 12.1248 0.528278 11.8759L6.10313 7.56109C6.74086 7.0675 7.6731 7.46054 7.76493 8.26173Z" fill="url(#paint1_linear_2016_1252)"/>
<path d="M23.9071 8.26173L22.6894 18.8854C22.6442 19.2796 22.8283 19.6649 23.1634 19.8774L27.7563 22.79C28.3564 23.1705 29.1526 22.8472 29.3174 22.1561L31.5171 12.9345C31.6114 12.539 31.4654 12.1248 31.1438 11.8759L25.5689 7.56109C24.9312 7.0675 23.999 7.46054 23.9071 8.26173Z" fill="url(#paint2_linear_2016_1252)"/>
<path d="M11.4261 4.49481C11.4105 4.28121 11.506 4.07464 11.6789 3.94823L15.4144 1.21691C15.6337 1.0566 15.9317 1.05736 16.1501 1.21881L19.8461 3.95062C20.0156 4.07595 20.11 4.27873 20.0967 4.48916L19.1853 18.9281C19.1718 19.1428 19.048 19.3353 18.8582 19.4367L16.0838 20.9189C15.8986 21.0178 15.6761 21.0165 15.4921 20.9155L12.8022 19.4379C12.6177 19.3366 12.4972 19.1487 12.4818 18.9389L11.4261 4.49481ZM7.35361 8.30888L8.57135 18.9326C8.59846 19.1691 8.48799 19.4003 8.28695 19.5278L3.694 22.4404C3.33399 22.6687 2.85626 22.4747 2.75735 22.06L0.557712 12.8385C0.501097 12.6011 0.588719 12.3526 0.781681 12.2033L6.35653 7.88849C6.73917 7.59234 7.29851 7.82817 7.35361 8.30888ZM23.1007 18.9326L24.3184 8.30888C24.3735 7.82817 24.9329 7.59234 25.3155 7.88849L30.8904 12.2033C31.0833 12.3526 31.171 12.6011 31.1143 12.8385L28.9147 22.06C28.8158 22.4747 28.3381 22.6687 27.9781 22.4404L23.3851 19.5278C23.1841 19.4003 23.0736 19.1691 23.1007 18.9326Z" stroke="url(#paint3_linear_2016_1252)" stroke-opacity="0.2" stroke-width="0.828028"/>
<path d="M39.0187 4.3866H43.3722L47.254 15.4743L51.1143 4.3866H55.4679V19.6134H52.2081V9.74814L48.6266 19.5705H45.8386L42.2785 9.74814V19.6134H39.0187V4.3866Z" fill="#E6E6EF"/>
<path d="M64.4587 19.9565C62.5142 19.9565 60.9773 19.4776 59.8478 18.5196C58.7183 17.5617 58.0963 16.2535 57.982 14.595L61.2632 14.4448C61.3776 15.3599 61.7064 16.0605 62.2497 16.5466C62.793 17.0184 63.5437 17.2543 64.5016 17.2543C65.3165 17.2543 65.9456 17.1042 66.3888 16.8039C66.8321 16.5037 67.0537 16.0676 67.0537 15.4957C67.0537 15.124 66.9607 14.8094 66.7749 14.5521C66.6033 14.2804 66.2745 14.0374 65.7884 13.8229C65.3022 13.6084 64.5945 13.394 63.6652 13.1795C62.3212 12.8793 61.2632 12.5433 60.4912 12.1716C59.7191 11.7998 59.1543 11.3352 58.7969 10.7776C58.4395 10.22 58.2607 9.50508 58.2607 8.63294C58.2607 7.7322 58.4895 6.93869 58.947 6.25241C59.4045 5.55184 60.0622 5.00853 60.9201 4.6225C61.7779 4.23647 62.793 4.04346 63.9654 4.04346C65.7955 4.04346 67.2324 4.51527 68.2761 5.4589C69.3198 6.38824 69.9346 7.63212 70.1205 9.19054L66.8607 9.36211C66.7749 8.54715 66.4746 7.91092 65.9599 7.4534C65.4595 6.98158 64.7804 6.74567 63.9225 6.74567C63.1934 6.74567 62.6143 6.91009 62.1854 7.23894C61.7708 7.55348 61.5635 7.9824 61.5635 8.52571C61.5635 8.91174 61.6564 9.23343 61.8423 9.49078C62.0281 9.73384 62.3427 9.9483 62.7859 10.1342C63.2434 10.3057 63.8939 10.4773 64.7375 10.6489C66.782 11.0635 68.2261 11.6497 69.0696 12.4075C69.9275 13.1652 70.3564 14.1446 70.3564 15.3456C70.3564 16.2892 70.1133 17.1113 69.6272 17.8119C69.1554 18.4982 68.4763 19.0272 67.5898 19.3989C66.7034 19.7706 65.6597 19.9565 64.4587 19.9565Z" fill="#E6E6EF"/>
<path d="M76.1722 7.13171H71.6041V4.3866H84V7.13171H79.4534V19.6134H76.1722V7.13171Z" fill="#E6E6EF"/>
<defs>
<linearGradient id="paint0_linear_2016_1252" x1="15.836" y1="0.433594" x2="15.836" y2="23.5666" gradientUnits="userSpaceOnUse">
<stop stop-color="#FD6512"/>
<stop offset="1" stop-color="#FF4E27"/>
</linearGradient>
<linearGradient id="paint1_linear_2016_1252" x1="15.836" y1="0.433594" x2="15.836" y2="23.5666" gradientUnits="userSpaceOnUse">
<stop stop-color="#FD6512"/>
<stop offset="1" stop-color="#FF4E27"/>
</linearGradient>
<linearGradient id="paint2_linear_2016_1252" x1="15.836" y1="0.433594" x2="15.836" y2="23.5666" gradientUnits="userSpaceOnUse">
<stop stop-color="#FD6512"/>
<stop offset="1" stop-color="#FF4E27"/>
</linearGradient>
<linearGradient id="paint3_linear_2016_1252" x1="15.836" y1="0.433594" x2="15.836" y2="23.5666" gradientUnits="userSpaceOnUse">
<stop stop-color="white"/>
<stop offset="1" stop-color="white" stop-opacity="0"/>
</linearGradient>
</defs>
</svg>
