<svg width="22" height="22" viewBox="0 0 22 22" fill="none" xmlns="http://www.w3.org/2000/svg">
<path d="M16 11C16 13.7614 13.7614 16 11 16C8.23858 16 6 13.7614 6 11C6 8.23858 8.23858 6 11 6" stroke="url(#paint0_linear_2024_6)" stroke-width="1.5" stroke-linecap="round"/>
<path d="M13 1.20004C12.3538 1.06886 11.6849 1 11 1C5.47715 1 1 5.47715 1 11C1 16.5228 5.47715 21 11 21C16.5228 21 21 16.5228 21 11C21 10.3151 20.9311 9.64622 20.8 9" stroke="url(#paint1_linear_2024_6)" stroke-width="1.5" stroke-linecap="round"/>
<path d="M10.4697 10.4697C10.1768 10.7626 10.1768 11.2374 10.4697 11.5303C10.7626 11.8232 11.2374 11.8232 11.5303 11.5303L10.4697 10.4697ZM18.6909 3.30912L17.9652 3.49846C18.0337 3.76115 18.2389 3.96628 18.5015 4.03482L18.6909 3.30912ZM18.1745 1.33007L17.4488 1.51942V1.51942L18.1745 1.33007ZM17.298 1.19006L17.8284 1.72039V1.72039L17.298 1.19006ZM16.1487 2.33944L15.6183 1.80911V1.80911L16.1487 2.33944ZM15.2781 5.15129L14.5524 5.34064L14.5524 5.34064L15.2781 5.15129ZM20.6699 3.82548L20.4806 4.55118V4.55118L20.6699 3.82548ZM20.8099 4.70196L20.2796 4.17163L20.2796 4.17163L20.8099 4.70196ZM19.6606 5.85135L20.1909 6.38168H20.1909L19.6606 5.85135ZM16.8487 6.72186L16.6594 7.44757L16.8487 6.72186ZM15.0728 5.86654L10.4697 10.4697L11.5303 11.5303L16.1335 6.9272L15.0728 5.86654ZM19.4166 3.11977L18.9002 1.14072L17.4488 1.51942L17.9652 3.49846L19.4166 3.11977ZM16.7677 0.65973L15.6183 1.80911L16.679 2.86977L17.8284 1.72039L16.7677 0.65973ZM14.5524 5.34064L14.8774 6.58622L16.3288 6.20752L16.0038 4.96194L14.5524 5.34064ZM18.5015 4.03482L20.4806 4.55118L20.8593 3.09977L18.8802 2.58341L18.5015 4.03482ZM20.2796 4.17163L19.1302 5.32102L20.1909 6.38168L21.3403 5.23229L20.2796 4.17163ZM17.0381 5.99616L15.7925 5.67117L15.4138 7.12258L16.6594 7.44757L17.0381 5.99616ZM19.1302 5.32102C18.5092 5.94201 17.6861 6.16524 17.0381 5.99616L16.6594 7.44757C17.8985 7.77087 19.2525 7.32009 20.1909 6.38168L19.1302 5.32102ZM20.4806 4.55118C20.4294 4.53782 20.371 4.5052 20.3242 4.45125C20.2797 4.39989 20.2597 4.34557 20.253 4.3035C20.2397 4.22031 20.2733 4.17792 20.2796 4.17163L21.3403 5.23229C21.6526 4.91996 21.8014 4.48764 21.7342 4.06688C21.6647 3.63188 21.3587 3.23007 20.8593 3.09977L20.4806 4.55118ZM15.6183 1.80911C14.6799 2.74753 14.2291 4.10151 14.5524 5.34064L16.0038 4.96194C15.8348 4.31391 16.058 3.49077 16.679 2.86977L15.6183 1.80911ZM18.9002 1.14072C18.7699 0.641333 18.3681 0.335282 17.9331 0.265794C17.5124 0.198581 17.08 0.347395 16.7677 0.65973L17.8284 1.72039C17.8221 1.72667 17.7797 1.7603 17.6965 1.74701C17.6544 1.74029 17.6001 1.72026 17.5487 1.67576C17.4948 1.62902 17.4622 1.57065 17.4488 1.51942L18.9002 1.14072Z" fill="url(#paint2_linear_2024_6)"/>
<defs>
<linearGradient id="paint0_linear_2024_6" x1="11" y1="6" x2="11" y2="16" gradientUnits="userSpaceOnUse">
<stop stop-color="#FD6512"/>
<stop offset="1" stop-color="#FF4E27"/>
</linearGradient>
<linearGradient id="paint1_linear_2024_6" x1="11" y1="1" x2="11" y2="21" gradientUnits="userSpaceOnUse">
<stop stop-color="#FD6512"/>
<stop offset="1" stop-color="#FF4E27"/>
</linearGradient>
<linearGradient id="paint2_linear_2024_6" x1="16" y1="1" x2="16" y2="11" gradientUnits="userSpaceOnUse">
<stop stop-color="#FD6512"/>
<stop offset="1" stop-color="#FF4E27"/>
</linearGradient>
</defs>
</svg>
