<svg width="20" height="20" viewBox="0 0 20 20" fill="none" xmlns="http://www.w3.org/2000/svg">
<path d="M10.0003 18.3333C14.6027 18.3333 18.3337 14.6024 18.3337 9.99999C18.3337 5.39762 14.6027 1.66666 10.0003 1.66666C5.39795 1.66666 1.66699 5.39762 1.66699 9.99999C1.66699 14.6024 5.39795 18.3333 10.0003 18.3333Z" stroke="url(#paint0_linear_109_7593)" stroke-width="1.5" stroke-linecap="round" stroke-linejoin="round"/>
<path d="M6.66667 2.5H7.5C5.875 7.36667 5.875 12.6333 7.5 17.5H6.66667" stroke="url(#paint1_linear_109_7593)" stroke-width="1.5" stroke-linecap="round" stroke-linejoin="round"/>
<path d="M12.5 2.5C14.125 7.36667 14.125 12.6333 12.5 17.5" stroke="url(#paint2_linear_109_7593)" stroke-width="1.5" stroke-linecap="round" stroke-linejoin="round"/>
<path d="M2.5 13.3333V12.5C7.36667 14.125 12.6333 14.125 17.5 12.5V13.3333" stroke="url(#paint3_linear_109_7593)" stroke-width="1.5" stroke-linecap="round" stroke-linejoin="round"/>
<path d="M2.5 7.5C7.36667 5.875 12.6333 5.875 17.5 7.5" stroke="url(#paint4_linear_109_7593)" stroke-width="1.5" stroke-linecap="round" stroke-linejoin="round"/>
<defs>
<linearGradient id="paint0_linear_109_7593" x1="10.0003" y1="1.66666" x2="10.0003" y2="18.3333" gradientUnits="userSpaceOnUse">
<stop stop-color="#FD6512"/>
<stop offset="1" stop-color="#FF4E27"/>
</linearGradient>
<linearGradient id="paint1_linear_109_7593" x1="6.89063" y1="2.5" x2="6.89063" y2="17.5" gradientUnits="userSpaceOnUse">
<stop stop-color="#FD6512"/>
<stop offset="1" stop-color="#FF4E27"/>
</linearGradient>
<linearGradient id="paint2_linear_109_7593" x1="13.1094" y1="2.5" x2="13.1094" y2="17.5" gradientUnits="userSpaceOnUse">
<stop stop-color="#FD6512"/>
<stop offset="1" stop-color="#FF4E27"/>
</linearGradient>
<linearGradient id="paint3_linear_109_7593" x1="10" y1="12.5" x2="10" y2="13.7188" gradientUnits="userSpaceOnUse">
<stop stop-color="#FD6512"/>
<stop offset="1" stop-color="#FF4E27"/>
</linearGradient>
<linearGradient id="paint4_linear_109_7593" x1="10" y1="6.28125" x2="10" y2="7.5" gradientUnits="userSpaceOnUse">
<stop stop-color="#FD6512"/>
<stop offset="1" stop-color="#FF4E27"/>
</linearGradient>
</defs>
</svg>
