<svg width="22" height="20" viewBox="0 0 22 20" fill="none" xmlns="http://www.w3.org/2000/svg">
<path d="M11 18.5C12.8097 18.5 14.5451 18.3212 16.1534 17.9934C18.1623 17.5839 19.1668 17.3791 20.0834 16.2006C21 15.0221 21 13.6693 21 10.9635V9.03645C21 6.33073 21 4.97787 20.0834 3.79937C19.1668 2.62088 18.1623 2.41613 16.1534 2.00662C14.5451 1.67877 12.8097 1.5 11 1.5C9.19031 1.5 7.45489 1.67877 5.84656 2.00662C3.83766 2.41613 2.83321 2.62088 1.9166 3.79937C1 4.97787 1 6.33073 1 9.03645L1 10.9635C1 13.6693 1 15.0221 1.9166 16.2006C2.83321 17.3791 3.83766 17.5839 5.84656 17.9934C7.45489 18.3212 9.19031 18.5 11 18.5Z" stroke="url(#paint0_linear_2024_515)" stroke-width="1.5"/>
<path d="M14.9621 10.3129C14.8137 10.9187 14.0241 11.3538 12.4449 12.2241C10.7272 13.1705 9.86844 13.6438 9.1728 13.4615C8.9372 13.3997 8.7202 13.2911 8.53799 13.1438C8 12.7089 8 11.8059 8 10C8 8.19408 8 7.29112 8.53799 6.85618C8.7202 6.70886 8.9372 6.60029 9.1728 6.53854C9.86844 6.35621 10.7272 6.82945 12.4449 7.77593C14.0241 8.64616 14.8137 9.08128 14.9621 9.68712C15.0126 9.89326 15.0126 10.1067 14.9621 10.3129Z" stroke="url(#paint1_linear_2024_515)" stroke-width="1.5" stroke-linejoin="round"/>
<defs>
<linearGradient id="paint0_linear_2024_515" x1="11" y1="1.5" x2="11" y2="18.5" gradientUnits="userSpaceOnUse">
<stop stop-color="#FD6512"/>
<stop offset="1" stop-color="#FF4E27"/>
</linearGradient>
<linearGradient id="paint1_linear_2024_515" x1="11.5" y1="6.5" x2="11.5" y2="13.5" gradientUnits="userSpaceOnUse">
<stop stop-color="#FD6512"/>
<stop offset="1" stop-color="#FF4E27"/>
</linearGradient>
</defs>
</svg>
